<mxfile host="app.diagrams.net" agent="Mozilla/5.0 (X11; Linux x86_64) AppleWebKit/537.36 (KHTML, like Gecko) Chrome/133.0.0.0 Safari/537.36" version="26.0.11">
  <diagram name="Page-1" id="OOFMUyEFIo7n-RSgjHRf">
    <mxGraphModel dx="1044" dy="579" grid="1" gridSize="10" guides="1" tooltips="1" connect="1" arrows="1" fold="1" page="1" pageScale="1" pageWidth="850" pageHeight="1100" math="0" shadow="0">
      <root>
        <mxCell id="0" />
        <mxCell id="1" parent="0" />
        <mxCell id="2p3xcbJ1UCog9vkdOibI-1" value="" style="shape=stencil(lVfbchoxDP0aXjW2ZVv2c5r+R2ZCClMKGUJvf19tGcNKC4fJ27LorHU9Ol7x08fm5X29SuHjdDx8X//evp42K/6ySmm736yP25M+rfh5xU9vh+P62/Hwc/96/v3+MllOTz8Ov6Yv/DnjOFPKEyqFv+c3iUr7/+Lr2X633c/thWow9o2mX/fscyK29jFTqAAgJMk6FCjG+4CSqRYLqBQLAHQq1QA4Ug73AZUpdwsoFEDQtZFYQNYY+n2ARGoOkKFL0inZoEuEaW1MydahFKoIIJSsSzVQkPuAHn2WqsYA6tALMVtAJ8kA0Ihta0ilxADQqUbbrEwdpHUC2Bg0qgiyFIMmxea1CxwgPcIFMYWFopYR4wXQKaCoNcbsAQVUrnVqwQM6GLlWPGnM8nAbEUZlZ0c00BxaWREPyKASwiTF57WBQujM9eYBqNYKqM4lIUZTnai5ytXBVbcBOhHVA1BapVF3LhUqgJm0/x0dKyCh3pAxMHMAyFJP43szQAZZ0r+XMXTEG82vIM3Sg5Fz7DoVDmRJAWJ5Q88MKIY2qHHefOiEMlbUvL3ByCkPpQUAndB0gGx7P5zR5FfERAPgCO2+ED2ggiBEV/WSyvAE5QVZojRNM+pcEjxynwaEBVlGYuCSioFkC9EynKBJbliXlAzR1iri5YY6WUHhCg/5ctm8ShvghNyGVrgAIhRlKl/YxlAw9alACvaEkigCYmKmajdKVlGGlGuibptPz6yg+Th46lPZ10DQKoWLrbSeiTZKWsxDEqgToxKdU+thbLE7+sSPqMpvtBXzmMervG9AnCzUj8pMkCE1X1w2QJ/GUdCL89AZ9l+PUB0Wv53DYP3bDOz3WoA7JPJo36s9as8ofjNjttbgHEsESKUarqMh9R8MpBa+ensB9tc71Cz7eH7d/SJCkvv0RfWhvT5cb8Vv293ufKme/+9v0frqfAPn538=);lineShape=1;strokeColor=default;" vertex="1" parent="1">
          <mxGeometry x="98.01766439487301" y="67.00556959847836" width="11.57851783767228" height="68.88807126129939" as="geometry" />
        </mxCell>
        <mxCell id="2p3xcbJ1UCog9vkdOibI-2" value="" style="shape=stencil(lVnLbhsxDPwaXwmJ1POcpv8RIE5jNI0DJ339faka2qyo3Wlzs9ealUgOh6R8kJvXx7uX44Hd69vl/PX483T/9niQTwfm0/Pj8XJ6008HuT3IzcP5cvxyOX9/vr9+f7lrK9unb+cf7Q2/rrhANTQQu9/XB47E/33w+br86fS8Wu49RTesF/IFrC/EZVifyPH+eo7kZVhfKIHzCJOM79cTCjiQFMp+BAiFuA8IgYRHQOw2bQNqt3ABJMp5HxBl2qFQAE6KmcoYNI1aTPuAFPrPC0CogiNlppBHQIFxLo684QUTg8AV9clotERKdR9QHYU6AhY3bAM8+THSQbkKIl0iSRwBiYoDXpoirbHPwIYsFMcdoqcM3JoWIiwAoSQAwP3nBRCpIPIVkjFwjV3A6BjIjRkXKwkgX9D3jXFIjhhlHJNnCwjAaGUOj25NnhjEQRxVo0rKVpBxIvZI6jfkpbaDs3EQYLTaUMoEAEdSL7n8kR2Um4beCoAyEylOOyQAUCdaQO45uA3Q/KrWrVCXHJWR3hppZEMOFEblUy30CJAnaqQemW3VECtk2UMxLtl6KUdotCqfEbKmtgig4m4AGjgEUDEe2dr2BDbUSnH0Uo0wgRRg3Kp7IhFogLHG1QzzQQEm0lWlDaiG/pyM0RUbnSkEC8ioAiUbOO8cOSAbNfQXrraoIIM01KFYQEBllDfchLqTulSoVSAK8qvSf8zRivuftsPoJiVTRkZzD+wCUL8hMoktci1FkJfCZIOWbnSkaJWs7YmMzsRh2gEBSq+BK6M94tKk9wqAXKqTDYtV2839O5tXoa5YN9KofWqWQ2fSesAWAI1QchqrF63aS1LTG7eUQ2TSEaVOALSD2NLe3IC8xJSnIzmccnVKaihlvlec/wSUYqtcoys4klYcMyiWCsem4ntzvgCEGPUCqtZjBumTBAKXk9UZfRJRu+6tzuhchGxIE/lS7aHcBvip28ApF9PUTAeYQJGtW5PAjinELqVrAKhystSPNQB132JnlIRHcK621VUAah442PE14iLH85wVenewZ4PpmNpghgB1GpsEBi5oCRrpraEsKNJumiCWKX6PS+auRV+B6q6y1XQnoUCjdXx100SNuKQDsvGS0hG1unkKnA75AsinopJGqdTIQJnJ080Gnqg15dnswF2p9txqhEzpiHqHNoKb2xncfavXzS0ZexiH4K3M+NoLwDa9Uz/xAsiwN9acNmz1sRN+G8A2HzxTBRVI3xfGwHkHrwYnKmVYpb3VyQDbBk+umuWoLXH2pgg3e872JAKdOfVt3NusveXeLEfXK67f/C2Oh9Ons3OYh5cGU7YoHpg6MdnBs09XGK7n2jbvbWLh+S70S9TVcnSV/LHL+X8u1w/v/wM8nJ6ern8jrH+3/xvoo+t/DnL7Bw==);lineShape=1;strokeColor=default;" vertex="1" parent="1">
          <mxGeometry x="99.11116129798756" y="66.09974692020626" width="56.50119087552412" height="72.20588180244965" as="geometry" />
        </mxCell>
        <mxCell id="2p3xcbJ1UCog9vkdOibI-3" value="" style="shape=stencil(lVhdUxsxDPw1edXYli3bz7T9H8wQSqaUMIF+/fvuNeMQ67gd+hYOr8+Sdlfy7fTm5eH2eb9L4eX1dPy2/3W4e33Y6addSoenh/3p8IpfO/2805v742n/9XT88XR3/vv5dlm5/Pp+/Lns8PuM60lUF1QKf85PYggSwr9HX86Ix8PTFaKqtDYhepOi24BiEvoMMMllG5CD9PlMPYuSI6Um1QEiBcQuliZAq5ISAaiEOAOC1LYN6BLnF9QkNZOsSqjTessSyIGKxDKtR5ZL3F6vUuailUDXx8GBsT5HieT8wa9HBoyVbKT7sj5KIfGaVJtpmkfGtgpW54RWqWR/HMhRCBUn8Wr0BwpijNN1lPNtPVNZWRFCKaNBlz4XuEnuhG8QSPcJVUKIahJnACLIpAK1DgJcIog0ZDOxWWOKGFiOklieAV0aAeRV0LAaJVUGieucVWyRidfBWOIcQ744x/uAIm0FUOZEaZjtBZCGXW44kcsqQmiMGaLmc5TIevPOiKoxIhWpbj2YZWz/PJdAoXyyvkmanVHhNaxkQZpTPp6QF8BaunlAIBmKdSTwGkBStChrBTASA8zB2Sm01og4l/7h3qCjJb4PMElOzUWMNEAAohNnlca0VrxDLmpmMYD3c6XB7MIAYRDtSjqVmHY06fORIE6mBVDDeR4ArG2CfCX5IzGfb15tUCdLkokWn1Tad8QcL2yMexv7O7+DOvmcU5x2UAKS0S591UQSK1ny0ymkk9igkEb+PgjAgZtrhJWGkCGdOWZkjTl2WQW9lJ0EjdlP56AxTUV2pJXJg7mZeB60m+c6RzRC5hfwvFn+mC8yU0KT5iZCHZ1ry1V94ymDjFsAl9acJTJqdD9DFngUs+Ho1WwYUUhaEaK/JoThs1sm6fSMuSwRfcLWXbtteMJmpJWFNaO9pzQ/+rdGXbWuRtUeaAwdl5fsAcz0evHNCvfBSILGhbRmDyjsSG3MIBdA4jF0P88jKjb2AODvtGArecPVvf2CKNTJ8Io2kwl5UA7QmUy9UhdAmtzAvTwh3MB+7l7bOxU1QrTqAUxyyGJQD+gM8N9fSD6CwI+3TzL3h8fH8xed6//7Tzh4dP78o5//Ag==);lineShape=1;strokeColor=default;" vertex="1" parent="1">
          <mxGeometry x="163.73044827283184" y="85.93376700352042" width="27.19162844617108" height="41.98248006169035" as="geometry" />
        </mxCell>
        <mxCell id="2p3xcbJ1UCog9vkdOibI-4" value="" style="shape=stencil(lVhJUhtBEHyNrhW9L2eM/0EEwiiMESHw9nvnWO7WVKFJB7dBdE6tmVU9u3jz+nj3st8F9/p2On7d/zzcvz3u4qddCIfnx/3p8IanXbzdxZuH42n/5XT8/nx//vvlbjm5PH07/lje8OuMa1VcWlDB/T7/kqrU8veXz2fA0+F5BahRatCALiFuA0oQ7xQgB3FuG5CatZCLFOJSzFKrAiw20zYgpBHiBFTJxCWfrUs1SGoE4KR5DYCFSlx6Z6FFcSStCDrpGFqWwtKabdCofffbgJyk6dZoXWImlY7SdAzdiSdB1zbqugJ0EnTzUqJ2ydGgkUSvLaBwjQTdkoSmWyOPqLYsFF3p4mgvtSCh6/bOEokFdE7SQadEYwBFmwbELo4ASpemKRojdQk5ydpCqLQOBYXTrRFQB9IauUrQaQUHMxEBaETQIgAOMplBDN4AJBNKXyRinHeU0dVJKOa8I+xB1Yw/OM/enwd7L+cL4Q7IZjMqhb2/WwmDIHXS127UZ7apVMZlJ9GotiRGg27zCfki/oA2/8RqisvokOvnQSp9Hg3kWULnGFsBErEAmvlgAcylgox0E0Imc60kSdqjJpFwBoLtbAkaE/ggRU+ETPUd7/f6fKTSCP+trHDdKnZ+YOyyeDG/LGU823WCpQyXFFDSLFPocSIpy05gKRnY+W4pE6hkgWJJvz/Rei0U1vnPNJ/wx65Fo2G3JMj0W5PG4v3o+TjSMfMZpDLNLaM+E9DG0rOVITNlwhy2W/tE0RbA4coWEIxqndPLensV0OMYK7PI2H5J0L2IN13RxkpyHdDGgj/bIokjfdH70MEJ6NKJS945q6XgNmttmDBBLMXnQUSzOnoqdkhT1eKL0iQWdbQXnZ75Nvtu5++8N+ocSJcB8p8lx1vEkji2d7mRxQlo/Lbm7Dq79BepHPrfuoQVmjUHBrlWVdwSWCGabY1WqAq8672lM9htULyOuHo69+vYpVe3TUZQBOzMHWTeoa+ntI1NdHVjzsQCFMIMKtQ9kVbFOm5UCXeQyrY1b8mQPLUAoUxaxnBp6eweVawFAKgU17GPTpc4ecD3kCwgMo1xI+srQGcq5u3AQpbY0tyDvZ6ilIVIBgCGzynSe9QCMIXDVkYqDYBtjSyJzFAE7U0Mha7BSKu1UKQzAWj2Tp4qZej1r2AfBiiX8HD56PZweHo6f7Nb/99+pMNP5w988fYP);lineShape=1;strokeColor=default;" vertex="1" parent="1">
          <mxGeometry x="183.9691344288201" y="65.96277391093054" width="28.025755430485333" height="47.994944632452416" as="geometry" />
        </mxCell>
        <mxCell id="2p3xcbJ1UCog9vkdOibI-5" value="" style="shape=stencil(lVjLctswDPwaXzEkwQd4TtP/yEycxlPXzjjp6++7qkeKCdmbyU2WtSII7AJLbfTu9fnhZbtJ4fXtdPy+/b17fHve6JdNSrvD8/a0e8PVRu83evd0PG2/nY4/D4/n3y8P05PT1Y/jr+kNf864Li1MoBT+nm8kaeX/ja/nx/e7w8XjMUjtw/O40yIBLO9bAF1CJYAqoY0RmWi4DUhB+ghQk9gJoEq0AZBNpp+3ABoljIDSpCkB1DniGVBxhwByFB330LKoEUD1AIuSyAoFK8QRUKWSFQqSmAdAT3SF2qWM1OjLmlcBrYu6FYJEQo1mkkeAZSmkcC3NZVrSamJsD03yWDi8IjJAkj6uUItUVgeTMhauBimE3gUrjGktRYxkKWfJ1QM6WUGLLxzoXQg1VCUkDzCiOA2Sowcw8kHyYewapUpngJWmpyyRRpaKhLHSBXkjhUt5rusCSGKZrhDdpiHRRvegYx1yF+NZcgJCIzOiONTBNWMAIgkJlXZtBoDAOh+oljwgs5AQQPGbToTeipy4wnEBZWzasTXNtb8FMFc4nRVyC+DZitqzgYIm4LhUJTNA9X0JAlKWJZ0FeSlRwlbMuFRXAFI4kK+tVmCFA73batNUD8WPLEi0fyBRtwelUxQAc4AojQHKKq2BzrjUfNcAvRk1YMj6uGkIiFmHTwOyzu5oAaAOZA9IopdopWO3qtTkN82GYosSHb3rrJDrgDJPg2WKpjnIqwDDBHJj16gNtdVQbCqNAGB2XJuBv2Eh9cUSLm5GqaZjCH5mGYwr6WTdvLvvymPSlemDaolG4Tqd2cCabGah1MWFBN9IGhMKm/2JI9D+Pc1l9TExNoHOblIjD40QPCcpzkx32mi0eZtovDNNg9cZUS5StGNXiIng7BSkK3uCwUtCisvkv7QnJK04+rkph9ndSEjNdwH0NupDPVlxtOyErJjro0JjpL14JTcunjA3lPejdCbEDn6kR9pfog8m0mCi3ysO7sysrh9no1k9nRcHdF2RvrBcwNVbkUDL1HwfDdRx2vrtzBiZP37FuW7XO6jkcTAlmplPfn758HFcvH/pedrt9+cPRZf/+y9DuHX+qqT3/wA=);lineShape=1;strokeColor=default;" vertex="1" parent="1">
          <mxGeometry x="227.45665934703993" y="66.4550867706339" width="31.815158004707428" height="52.34475418535112" as="geometry" />
        </mxCell>
        <mxCell id="2p3xcbJ1UCog9vkdOibI-6" value="" style="shape=stencil(rVjLbtwwDPyavRKiqOc5Tf8jQDbNomk22CR9/H1pLOSYtD1ogN4cryYSyZkh5YPcvD7evRwPMby+Xc7fj79O92+PB/lyiPH0/Hi8nN706SC3B7l5OF+O3y7n9+f7698vd9PK6enH+ef0H35fcZwp5wkVw5/rm9jGm69XwNPpeQGIgXIwAKmUBQAylWQAKVGL+wBhSsUAMlNpAFCpNgtoVMAOegB3pJIphX2AHqBbQI0kIOiS/JFaoA5iqIlCtwDNUgKATmILV+uozDagUKo26EoNHynaoHOlXgBAfJbSHNUeoNpKS4J1mLIeLVszMah0KdTZAJTwjCqtSbR14EoJxJDqqOscQ6DEgK2dog06CTHYIXZiV4dEGdQhFqoOUGBa46oOGXNpbQIKqHUfoEkU9gBGAA3RVjrncchtQKQkFiBUQFqZV/RmWAcFsA06NZglPVJwgEwdsJWF2ooaFXCJy+DmDIiQ3typuCNpGkAdYqRWVwDE1jw8YnkkYDMf/WYRNOwPgcTtUCgAamhDiZZ8WriCAa5wSg0BZqwS9QLSGFBTrKNBLejdkKa1G6wUF0GWInsjy3Ob3KZGGyEuAAkpLpO4HcpQ+R69g5Oo2j1IqyouO0CElVaA2yF16Hy8ypJyqYLxR2Ngx9Y00vB/AOrevJrIKohB9eAkGrFEUxjGOM8a0GXy7FpjfRj62OvSxa9Hcms8esdcZjhctUbBNXWBWuiriVJtDU2UXdVrdxAZRNkGZApOz+oYaIfiO2gR2N96Hzmc5z0tC+qgIXgXawJHSj1TtwBNHBJ0y4NnM6BRRwNf9IJenHJ7gFPq2EroKdFMqfotVj5NZw+QJ53HgmWf8hG5knaH7CoxT8p73s02TTqWou6g05K7n+SOTUYF74ySx7S/LWmf1TR78+b6MBxoMajj9WzlIBFO0SuqTqYG17vLj3ZgQT5P7Ayg4v48KDOvL3DkFu+QmuEM819t/pUjHShtRQhdj264qzFP18NBkv3lcLpYfaqtaYYQI6aBPvkSwBvAZ79M/ANAHz4+hDycnp6u31GWv/sPJ/rq+tFFbv8C);lineShape=1;strokeColor=default;" vertex="1" parent="1">
          <mxGeometry x="262.86618239965355" y="78.99496730367377" width="26.256136440914133" height="31.975826964834823" as="geometry" />
        </mxCell>
        <mxCell id="2p3xcbJ1UCog9vkdOibI-7" value="" style="shape=stencil(lVbLctswDPwaXTEEQBLkOU3/IzNxak9dO+O4r78vVA1VA7EwzU2WsQJA7C4x8cPb/ul1N1F6u17OX3c/D8/X/cSfJqLDab+7HK76NPHjxA8v58vuy+X8/fS8/H59miPnp2/nH/MXfi24LsB9RlH6vbzBAjn/ffN5ARwPpxtAExAyAMrQaRsgPP4egJwAgww1Q0UDKAK5bgMKAiUDEITG2wAtgLMBNAWUbQAjJDaAniGlbQDpKdkMvUIPeiAGEgvokIJTwgZom8aUwpqQQKpPIUHXAs0OrjdgDE4JxFKpF2hRC5CajScofTt+bW+dWoMe1JOguikXQAlmAL14VkgQX6Ha+kVHFsQjQrYsElVfMACsXmtSxxnf7wChd58hUvPcQ/c9UKQElY4tqRGkiBQ60+SnkKMMPL63AvrQ95Y4m82gPGqR1pQ2jngVUgTI43s3SogcCTu0d2puwSlhhkIe0AMudW/bWlHkwsVrR1uWqINR7hrPw9E2tIauYX0TfD8BOW3W0dGGNj0pKPSWD8druRZQGXJwoPxOakUzBB3opZNthkzxLdW9P+rUS1BSLUA2AzJwoBxRP7SOx+ElNZuJNTACCuKbTtmyOg3l3Y/XcquLp6Bh5UwVFx/dgGokzuFT6L/KeXft46Dt/fgCgu58alC/Ll/NqiCHnFNPYKviGhLiZiNYZRDa0Gw6bqnAcFeblxQ7YaVcDkbw4X3zPwD68G+9fTkcj8t2fPu/X4f11bJK8+Mf);lineShape=1;strokeColor=default;" vertex="1" parent="1">
          <mxGeometry x="296.088061392501" y="81.77751517084471" width="16.12589952136591" height="22.91538626964109" as="geometry" />
        </mxCell>
        <mxCell id="2p3xcbJ1UCog9vkdOibI-8" value="" style="shape=stencil(lVfLctswDPwaXTEEwec5Tf8jM3FqTV0747ivvy9UlapAyZvJTaawBrBYANQgD2/Hp9fD4N3b7Xr5evg5Pt+Og3wavB/Px8N1vOnTII+DPLxcrocv18v38/P8+/Vpspyevl1+TP/wa8axJ5YJ5d3v+cRRDX8PPs/2p/G8sveJHBv7QjHet5dMpRh7TpSAg7ABeKECADGTjwYgjnK+D8hM3llAoVLvA4oQJwMIqbG2C6jSe0iOBIRUM7E3gBwpOQCoVLsy4DoooGQDqEy5AIByYj3UQAUlnajYHDQrQR5CLz0NkhFLTM7Sys61o/3K5aaElYuMSh0aKQtAeQUxFU/SJZEogEIUFadNQtWSkAdNsfPgKKKkHQVbCKVBEICp2JCUBlQ5fe1syykNLgFAompz0CAj0obrtTHRAAqnJAr3ADRntExdU2sOjDwUktSz9E7LpdLXARVupeZVqTNDF77Ttw5LUAhtydgBdBwjD7HRvmoIJNeqSti0HJrfOrj+vV4BKlJfpLyZGw4BZBOS7gwUEhN3IQVKuKl7AEN9fxiQdZLZlsu1KX4fEFvEyw7KbWfsAlJpQ6IBdLMWkHSMbdAta7FSBBtCV7vYwRTwapdNSJIgQC8j3Q7ytfG233KlDYkF4KG8AwWrPY5tnu9H1O8TDnCfMAUbDy/i3bVfVsFiz3DWu/76VttUu2du/15LCOjUzWMbTSWCBl57u5SXkodcWu51YANBLztsdbMFTKb+GunawX4Hb83RTYTdzt+DXvnovfx9e334/xHwMp5O8zfE+n3/0aBH8weHPP4B);lineShape=1;strokeColor=default;" vertex="1" parent="1">
          <mxGeometry x="295.8811603493334" y="81.86657288806873" width="25.589051466698493" height="25.638033197086315" as="geometry" />
        </mxCell>
        <mxCell id="2p3xcbJ1UCog9vkdOibI-9" value="" style="shape=stencil(lVfLbttADPwaXYldcl88p+l/BIhTG3XtwHHb5O9LV5WtpaUpclMUjjgkhw8P8vC2fXrdDBzezqfj983v3fN5O8iXgXl32G5Ou7M9DfI4yMPL8bT5djr+PDyPf78+XSwvTz+Ovy5feB9xkiikC4rDx/gmUa5/X3wd7fe7w8w+MUnp7GOmGgGgUYsdgAvFsA7Ixkg7gBQSQCkrNe5DKFTzOqAUatIBcqUCPNREpXWAUknbOqAxhT5L1SjpOkAbhdoBNFAGaVULOvcApswQUHtKalElAKg+rVowIBE7QCMBlW5K0mvPSKYCAEI19OILgQJwUS2I5l00oI1qWQweEEDUpVHs9W2JK0h9maKjlKdMLwOsIZwHywOilKj2+tYIK2dq5l4bVpp/n1jOUiTpPbQ2FX8ZUCZxXgFXn2sdxP0UaIUUpNUIBPEeBDWEUEw+BsEN4QaTZUmB+G5qntWhgbTO1DwrtSJOjYpzUWBDmNayU5+1CAJECncdFAGllqmIB6A0VZ0IzAFguto45ugBAgDFCuEoWdeCgW89qtWnFU2mTwNsLbostTApfhkQ/dKyJmQQtIj3UAJc7ZynMl33qBIDufKdWsWiAi1npwL3AG5UQQx3DRR1WqyL9sGHXKeyrJg7/lYzaC59jRMpIBP9FBa4oJMnYxMQLSp/t8UptyujxZ8wAeozpumqu9kHQCfamafeHvCx6NTzQdPaSlOTs0czwqSjTjpwfQhT6r8vcEJ89m7+v7093I70l91+P9748//7o95ejT8I5PEP);lineShape=1;strokeColor=default;" vertex="1" parent="1">
          <mxGeometry x="37.96480500749294" y="164.97196295242009" width="11.7379433169624" height="32.33700081202892" as="geometry" />
        </mxCell>
        <mxCell id="2p3xcbJ1UCog9vkdOibI-10" value="" style="shape=stencil(lVjLctswDPwaXzEEwOc5Tf8jM3FqT90447ivvy9UDxURsrbTm6JwDQJYLJfa6cP74eltv5Pwfr2cv+5/Hp+vh51+2okcXw/7y/FqTzt93OnDy/my/3I5f399vv399jStnJ6+nX9Mv/DrhlMqbQJJ+H170QK1/PfN59v60/F1sZ4jZR0AtVDVbYBFqGEEJOK2DVCmUEaAkJRtQGQq45ZKplC3ASlS5QGQCyUQIVfiPABSoQZyqIHKGCFWyiCC1UTrCLCkEwAItTgA1AoNIhTrtAwA60yMIOlIIQ0AzqQggpVVRy6xRQigcYmyA0in431qpNWWtP/EfYBVaeyDWEywJQM4amihzDiCa1wiAVuKkdLIVus0g4lLbcUlJkaNqxQcwGZaADWynzgDJDDTNROrr5KCiauV4hhBMwkoa5tTnAGpT/l9gLE/eUADW2pGZvFbamDiWiUdhUwrrFJrXVSWZQUROAQKY4g483EzxJi1sS8AMlkSMipZLFArrUzi+G1Khsq00vvY4MhZq0P1gAr4PZFJPEARwPjdfA5o5KopmZvRTBH0oeoKEHvdtgDstiS991uA5kau9UJvnSh+5EoXw/uA0vu6GAjI70DitpQwW6VbiyUACFNLlOJqS4h8xWvllDSghg2QzwGTzwDNTZz0Q2kL4OdhZtfWiBY3D0Y+nLRXjQod1gRYuRMEKKV7kdn/ROwdTCPGHJLpEkg6KaUxh2RDCyKY9vKYg1kylININ2CLLSkAcPJsNW1VMHFmj9gNELaVE2CskiR4jBrAGybtMbeSrk4EKALhMw/pRCP0CbxvZjKV4NYjFUvVDzRTBgJgvjw7asPpLHVlEBmfJeoFgws+Gqr3e1NJkYaZcDvbEPqbrRM3OGNSsSRpv4AtBANV1ZTeRZisO+Bdib7NdjlgMM6ZKY0RSoTDFlcGcTrwALN1lof54srQl4g51HGcW4S+hGt3qDMgw9OqeH9o0l/QNbRfIWfqBTw90R/QH4fR/Rr169pifQZEklXCDXpDJnEtqFAgg7/5tLknG+t51QB0tVq5Z/MPDPZv/mUkqTEiAL22S73LV+EZxV7szAChi5tQGqXFKI1O2f/9dvPv9fbw8aHo5Xg63b4zLf/vPyzZq9tHKX38Aw==);lineShape=1;strokeColor=default;" vertex="1" parent="1">
          <mxGeometry x="70.24292796188706" y="160.92435121638266" width="31.70811530363858" height="37.82854863093178" as="geometry" />
        </mxCell>
        <mxCell id="2p3xcbJ1UCog9vkdOibI-11" value="" style="shape=stencil(lVhJUhtBEHyNrhW9L2ds/4MIwCiMEQF4+71zrOhBk41S+CakSrqWrOqs3sWrl/vrp9tdcC+vz4dvt7/2N6/3u/hpF8L+8f72ef+KT7v4eRev7g7Pt1+fDz8eb45/P10vlsun74efy3/4fcRFq20BBffn+IUzX/998eVo/rB/PDHvVjybh/PmPllNZO/ceXv83B3bi/8fqtXM/uTz9jFZYX+CsE9+HH9iX4R9tjb5I+LN0dLWH2/VC/sp/8WS8L9EzqfPVpoAZIt9AwgIKQpAYgJFuKROCNbqBpCiOZHT3CxtY86oogIgxG3QOFMFnToHXZ1lUYaUzG/LVoNFxbtmrjMgiT6L3nrcArw1EQOI4BoDsiic79a3dai6Dug17xiQBSDGkcQVkGQdYh/DZAUUi6J90G6BYmjWVP94i9u0NmSpC0CxvnWpJUtiIqHjiN6tDLK8D4DHnQFqJtWppxvSIE5oGKp0wurk+wA0UGZAFoXr2fKcJUGNXs0lBnRRh94slilLog69j4ZcAehBQQ0AKK39wlUIwNalHuTkA4Cy1DE8Bb0RdCFAkWxFWuOWfPimqzrkMVRWQJOzFR7HMAFUHQLfiHCpCXp3/07QquNQplo5rbIOziIFHWQDAZCogfoYz+dioHHfELSqdODJB3qrYdzjuD5OG0idkIfwOm1RFTSolhlQVdCgGgHyUH/n+sFVzlJUQXeuNOqgqOGd46i7FljLEcS+eGkw0TWKxMk5AybQCdWymjOF1QnOVOoE9G+JAVV10P8CFnJWBjjBDVzLITNAdRDkkaPhuuqVc8KVla7TuwZ0ZZmjVgCoPvKpSG4kXO0ESFIxLUqYuBFkR8Q6ccNpTRZ4YVpaSDQpFkSWJ1VqAV/GvnAiHpSe8X6IwhNtrC5eH4bGW/U99IeIwa9L0gpw8obAFha2MYAsQbgE9c0ATEPRo6hD6AxQ12IKTL68DpL3AYXHMfYiBciO76CkxzH6gaYA6KgKlws3NXaKoDoOwnZbad9kWqHvySWPi1JvECRPQMes0jq9CAAgW3R6clgAikvTmwYAalecH02WlhJBz68y3msRx68OS5IUu/lNYIlArZa8M8E+iMEaxg37Nuvl2uf59oG9EwPD8f7T5SuUG5vIOsCkN5MmKUNefsw8mxc35+RMvOAMhRo0daZMyoVkKpSu08QDN9b1j9FML2wXzfHh7Zn0bv/wcHxlPf2dn1Xx1fFJNn7+Cw==);lineShape=1;strokeColor=default;" vertex="1" parent="1">
          <mxGeometry x="107.95060876508569" y="167.8751010126216" width="54.229216880325566" height="36.562627691415855" as="geometry" />
        </mxCell>
        <mxCell id="2p3xcbJ1UCog9vkdOibI-12" value="" style="shape=stencil(fZbdcgIhDIWfZm8zQAg/17Z9j85U606tdqz9e/tmZ0c0uJ47xP0I5JwEBl59bp8/1kNwn6fj4W39M76ctgM/DCGM++36OJ50NPDjwKvN4bh+PR6+9i/z74/n6ctp9H74nlb4nbmSKZeJCu5vngmZ6jzzNAO7cX8FVKEsBuBKrgKg9oAE8gkCbLeUhEoEQKSUDZDLeWYRKIl8MEDRmHwfyBrBG6Amyu4+kDxxMoB3jhwgYu7TVAsVkFcWCs4CTBEoF4RctKeOxHIf8IXYpikHikAIf+MNUW94AGSSaoAoFIE3AlOyeWU+p2E5S9yfQZcQILVuQOwZdJNoS9Ls3wA5u2XZTIHECqeJ9kDpSaauRiNVcAY1QhdBzeLBli5WazpkSsBLV25uRaqWRyFawTQzRRIQYirJzq5atkBqLfouwqUxLBepthWb10vrWZY6UOAeyKCCtDV625mm9gmUC4Wc3VLJMMIE1BsA2FW9JraVlQB7n3c9oMKhCLEvIM1zBPZ25/umNQ1tVEC2G+fFCC8g398O2hNQuQlVu752DBfA+q0ptnqO5JFmeuIuo9DY7KjY71UxdJV4EntifPWorW++R/dC4t7V3DlIB5cHx2bc7eb3yvX//QNFp+bHDT/+Aw==);lineShape=1;strokeColor=default;" vertex="1" parent="1">
          <mxGeometry x="169.86796084247567" y="186.87531245851915" width="4.672539772115442" height="4.665236216357698" as="geometry" />
        </mxCell>
        <mxCell id="2p3xcbJ1UCog9vkdOibI-13" value="" style="shape=stencil(lVfLbttADPwaXYldcl88p+l/BIhTC3XtwHFff1+6glQtFU3QmyxxluRwSK4HeXg7Pr0eBg5vt+vl6+Hn+Hw7DvJpYB7Px8N1vNnTII+DPLxcrocv18v38/P0+/Xpbnl/+nb5cT/h14STQjHfURx+T28Slfb3xefJ/jSeV/aJqcXOPhZS2QfkQKV2AFbSAABKofURCVXdB5RMhTtAriR1H1AjRe0ANVAGSVfz0ANapARCaoG0Z7XpfMT7ORiJfQ5qR3yQQ9l4QIBCOfSARg0AGpM0DygJAJqn1UIKcR+gQsIeoMCDVmLpWYokQHyqlHu1ms+APOimDokakIY2Si6kAuugmWJPqx3BiKWwyUFJMqhD2uSgWEuNtC9cDIEC6NEqcwQrFwnwWhrl6rMWBDCaque1gVIXmTtyAWQKBQKqo0lgISyktlFfAtoo1pF9y1ktUUjVZm/voS3DcG/OpE1TF6SNQhI9oDFQX/QsWUgZ6btQUJ809ND8rFSGWlqJc9WkDHg1ccZNkwYwju2z7+pKFc2NMoe8BgC5JgO4rOP8ZnfxuoHPVIBcReeIly0X4eIVmafEskcbXO1cKfQspQxXStxsOWEKIOk6Z7gMJlMrqFsg7knFs3ijozx3x465u/oYYUB17JuZqYLTzXdf34i3rR9GFh0objT5ZGfPqMmqX1N4I1i0bsAH2GGWbi3OPqPzN5s8EoOpYsJys5fn28n79sm3l8A75P/emz+2t4d/l/SX8XSa7vjr7/5Sb6+mPwTy+Ac=);lineShape=1;strokeColor=default;" vertex="1" parent="1">
          <mxGeometry x="184.1345018338509" y="161.13347109410665" width="10.251500674534782" height="32.8941777071758" as="geometry" />
        </mxCell>
        <mxCell id="2p3xcbJ1UCog9vkdOibI-14" value="" style="shape=stencil(lVjLbhsxDPwaXwmJlETpnKb/ESBObdSNA8d9/X25NWRb3N0JcttsOBZfQ85qIw/vu6e37YbD+/l0/L79vX8+7zbyZcO8f91tT/uzPW3kcSMPL8fT9tvp+PP1+fL329NkOT39OP6afuHPBSeVOE0oDn8vbwqV8v/F14v9Yf96bx8ptcE+an+zCOBMeQTYCU0BIFLmASCZkqwDYqMcB0BiShEALGYHqNAlC7HKAMjmUsInjEEXpoJOaFTGEzRQySBLTMEBKkWQJTaX6gCoSgIKl4Q4eEAGJ+REXDwABa1MOgeAwhXzeARoogoA2dI6xlAqCUirNULQESAUGPAhk4x1KK3XfrkOpffmNYb2UaXr6FI1AqFKR8+4au1dYfPxeEKz5gMxxNJb7QqI3cllAHtON0zRSjV4ewaEsyqod0hAyDxLUYM5DaTJpzRAe8fOmqmCjAafnyqkoO2YomNO7Fxa7mtSF2/oM3Al/3H0x5oU5T9a/R2gwoRGG6DVnyB4pKr4EFALGQ3YARjWzJKqrggJA2RW5QKzOpVt1kaCTggUs2dmxJuKHcCmAZgu0frMAZgELc9Za08A4JLNu+I9UlBoocQ+5IRC9gLGcqoBUS3OioaWjhFl1hVIjnzWPs82f+rkW443da1ypy2goBKqYwVsUxcwHKX1hFwBoe/R5RDUj5dsnQ4AtsjbyH4TVGiRa5nJ1NjlyfIAK75NbfMryFJLXiroVW0sAxrpmCWb8QE1ajDquK0mFNEUtiHpAK3P2TVF5Zrp7tDl0onfbFNcgJ4pzgaG6W/E59AXwRVgqwGNpNb5ewWY4AHLU2fLGVcu9aTfbZKAHJp1RoS61ibM2NwTQbFYGH/f+ImqHH1rJ+3yYWWihpH/KWAhT220F+5ybG0lOPUyjRwEKH6t2VDLAGAh17HE0rfK6iofU8SwI6wlgnMIa4vspUKAE9Va1PEywOnFrevvmz1isX2Vqzp7NH9lxvrQ5djaV477xI5dySzbl87wW/7hV5R2gt/qi0apVMojxVLXPWv2xa1AqCk+fSvyob093K5gXvaHw+UG5/7//srGXl2ue+TxHw==);lineShape=1;strokeColor=default;" vertex="1" parent="1">
          <mxGeometry x="213.0622667398668" y="156.00499507347138" width="23.09373814793389" height="39.42856753600199" as="geometry" />
        </mxCell>
        <mxCell id="2p3xcbJ1UCog9vkdOibI-15" value="" style="shape=stencil(lVjLctswDPwaXzEkSILkOU3/IzNxGk/TOOMkffx9oXooC5C1aW62xBXeC4C7dPP6ePey33F4fTsdv+9/He7fHnfpy4758Py4Px3e9Ncu3e7SzcPxtP92Or4/35//v9xNJ6dfP44/py/8PuNqJA4TisOf85NOHP89+Ho+/3R4XpwvQlLN+Rip1G1ATlSzBWTKQEKKFNgCKpW0DWCmYCVwoAxUikLNASo0WgHVOillCgGolCgVA8iRYgdGV0rJAhr1BtyaqXcDKEwFAEohsUbrE+ZtQA0jTDMgkQCjm6aGU6lSAxK6DK8PgBSqCNB94GqiUkDgQhhxGogWqAJEj5StEW0Wet3qPNw+F5DqJMCvlYKVoH5oACAyNJ4BnTIATDVqjV744Xo2CXWxIhoVYHVqK50KdQDQCuuWN7oGAlQEx5GdcyAESoiFoi2hFikBoyN7lTSbBGVTp2RDLXnIvG6DRs5KKMquoEhToWAllDzKdosGkg1cCcQAoDUcHDMJZWC0KJXZdM2BGjBaOgWrkpJlA5GuPJhupuMOyVIBzdqgfIsAGqZgiSYG6iA11OjicmmI3BIQbbJqSYOGcuG5OWywPqVRdD6FVFznbjN7iCripOxZj2FTVw6r0ekTgH+UdIu1Vx2GzjOJ9w9i7ZYGl8ylPHrR1vlu9e+jUrf06aupByqkQ4wDJFhmtfky0zFJAFXUMup8BhRId5oTPXkAA6M16Vr0KqGskFU/V6MZ12UO3q2on0916boIbFN6vlkBlTJwqqz5F/ZyqcODl7wOoO51popu8hyJdf188h2H8Wyxms4ZTmC1j4Z3qWM0gGkdOCLVpovqRuMVnf8D+v4nz+u0VlwCNQqgOels5gMgw8XXAWEMHf85+rcyhrlFv4SFLOP1DNA5AzWPVbPRgQ8Zra/TagxBKunu4eYWLSTEp7q+BMst014JVEpKwDbx1A0FSMgrQp2mOyBBbXCDjkbmAy9FG4dWRzVtkYXYSE8bEK5O1wUnG0CktW1mC1DWR16a+rKNg05jCRHqahUW3EVK9AOnAjowOrPfjzR/YWpkXw+iuQRs0AqOlgRKhY3tcp+w2J0bMLqP1r1YzhEtJd84c4J7wmpJ1fJAibSKARf4/TbWxUXn7+i+o/hNPuJ5UOV3m6i4L6fmR37Bt07s102GtyOy2rHDKO7NUae684jktY+LPx/RefZ9PMANvq7m05n+toZBtx9EvHKJJ0ceDthkLj8noKKfepprUSMgW+fZfl/GteSWvdmt7vguS9dkx7xYH/b50OB+8Nlb1I/P64/Lle3D4enpfOO7fO+vePXR+Xo43f4F);lineShape=1;strokeColor=default;" vertex="1" parent="1">
          <mxGeometry x="237.71782421166859" y="150.91047460484424" width="27.88652725132647" height="44.52884035814566" as="geometry" />
        </mxCell>
        <mxCell id="2p3xcbJ1UCog9vkdOibI-16" value="" style="shape=stencil(fZbdcgIhDIWfZm8zQAg/17Z9j85U606tdqz9e/tmZ0c0uJ47xP0I5JwEBl59bp8/1kNwn6fj4W39M76ctgM/DCGM++36OJ50NPDjwKvN4bh+PR6+9i/z74/n6ctp9H74nlb4nbmSKZeJCu5vngmZ6jzzNAO7cX8FVKEsBuBKrgKg9oAE8gkCbLeUhEoEQKSUDZDLeWYRKIl8MEDRmHwfyBrBG6Amyu4+kDxxMoB3jhwgYu7TVAsVkFcWCs4CTBEoF4RctKeOxHIf8IXYpikHikAIf+MNUW94AGSSaoAoFIE3AlOyeWU+p2E5S9yfQZcQILVuQOwZdJNoS9Ls3wA5u2XZTIHECqeJ9kDpSaauRiNVcAY1QhdBzeLBli5WazpkSsBLV25uRaqWRyFawTQzRRIQYirJzq5atkBqLfouwqUxLBepthWb10vrWZY6UOAeyKCCtDV625mm9gmUC4Wc3VLJMMIE1BsA2FW9JraVlQB7n3c9oMKhCLEvIM1zBPZ25/umNQ1tVEC2G+fFCC8g398O2hNQuQlVu752DBfA+q0ptnqO5JFmeuIuo9DY7KjY71UxdJV4EntifPWorW++R/dC4t7V3DlIB5cHx2bc7eb3yvX//QNFp+bHDT/+Aw==);lineShape=1;strokeColor=default;" vertex="1" parent="1">
          <mxGeometry x="276.86796084247567" y="181.87531245851915" width="4.672539772115442" height="4.665236216357698" as="geometry" />
        </mxCell>
        <mxCell id="2p3xcbJ1UCog9vkdOibI-17" value="" style="shape=stencil(lVbLctswDPwaXTEgwAd4TtP/yEyc2lPXzjhum/x9obp0RciCo5sscU3sYvEY+OFt+/S6GQjfzqfj983v3fN5O/CXgWh32G5Ou7M+Dfw48MPL8bT5djr+PDxffr8+jSfHpx/HX+M/vF9wSSDLiCL8+PcGCP+++Ho5v98dpucT1NidJ4RCDoChpg7AGWJxAAQp9BEFSN4NEQQ7QGYocRmQAwh3gEJAvAwQpVg7gDBIWAZUgdSTrgTVIR0QAXsSNUKu7hXUx1RVVy8mhtzrWkvL5W3W+n+9TLVCcBJRCqQZQBxdc2kqTgDVIa1uZbKA5AFUVhPS1fA3AZFnIRVgh0PE9vkKSFCcCmKlaABaItm5gSAXayZySEe1hnEfgjg3pAyhN5/cSVwCFgvwQioJQrQAdrwkEXgGEK8eCJAsaa/kxrxWK2t0QhrNbPIQIXgVp5oYLyWQ5ABS64wT80UncaoJmkwLFIe0drI8K9HshFQCYB/SpFUtdVera23tc7HhzwDolVyCjFYmcTIXAwQjUwZyZBoBeQ0gFFtyqnRwOARq1rnOIHYHr9h6yBHQMZ+WdJ+3O1M0QumNcWdMUxuxn9wDZvPN3zOwFco1nLZG3G6qwH2+yC2DYttXaOyXkmU6MLq9KIhdknRIOGRVCzN0/BJjApE157UA04p4Ym7W+hxftRbjCj11iTRj3E9XKnZh892weqm9e14f/m/QL7v9/rKAT7/bjVtfXbZ1fvwD);lineShape=1;strokeColor=default;" vertex="1" parent="1">
          <mxGeometry x="294.10621376654854" y="152.1200110668393" width="6.454405489181909" height="36.12826247720159" as="geometry" />
        </mxCell>
        <mxCell id="2p3xcbJ1UCog9vkdOibI-18" value="" style="shape=stencil(rVjbbtswDP2avBISqQv13HX/UaDpEixLijS7/f3oGfIsyTnrgL05Do9EHt69k4e3w9Prfsfu7Xa9fN5/Pz7fDjv5sGM+ng/76/FmTzt53MnDy+W6/3S9fD0/z79fnybJ6enL5dt0wo8Zl0l5ArH7Ob9w5NzvFx9n8dPxvBL3hZL08vG+PCvl2MknIB8CudLILy825WOimBr5QgGcnzJxaOR9IgaAzORbgtgTKwAkKq4FZCp8H6COSkuRRMipht6G4CkiQKLQ2hAyReBlVXItqzFQAUarVE4qIEViASxZGLQ3ZCH1wHGukrgAErTBIim0fshKKd8HiCNtQ888I+AGC4TY5oIyZQAQrpwsAKEcgA2RfG4BERoddVDJWEK0KmkYACDhtJDGHhDSfUAR8q4HKMiHkmoFWgC5KrkNUOI2lkzJAIKvWBFrjS6+Zsh21XOu18nMSsARdgW3wVQidHXJ9bwFYG+A5+y8rlLanQ5ZzfXvFQDxqkPtNkABrp6CU3uAgJSzfNGueit5pJLlaJsQFi0B+CGXvr+VQAJcvQGwDgBo3VDJ1er5TqONaKTSRGtXmDJsipPjuhtwrZxCY6gCCeXoEHymEky5IbxNSQU9ayOBHGVww1aOcnXNe8sAbrxjoTGzYMoNpcyOgLzKRlKjeWksxyse/hPCekTIvVIZTAPRhizfAwIA2PyiA0+o9U6dlHtPMCDWenXubIh40A1DtfS1HG6zNAR4ogzqd6gGrqYNRqWPfBsZNjChYmyDtrQUJesPQCGxsbKlKCXYH4ING90NsUbKdlwU8m1cJLMB5I9N666NVTsC1VYzMbcsRSHBN+RWJZu5BA1MoS/GUjDA1bl2AUil4d5K0wFsgUBjZXR1rl2vKGg09vW81RKEZjjxfcvyDD09rYltaHhHAcTSsIZO8mjvq3GzkhcUq+T7NVHB8TwMY3UQ3za33r3kMlx+XF1Rl1SGATH0tUgKiukgHuAcOShjCQOYGUzlWjXeR6SHo87gJgenbIuC0Il7tMv/27eOv4rbw5/PKi/H02n+KrP+v/8MY6/mTzjy+As=);lineShape=1;strokeColor=default;" vertex="1" parent="1">
          <mxGeometry x="308.8102614780653" y="154.79419091540785" width="28.00393320118451" height="42.051957213543005" as="geometry" />
        </mxCell>
        <mxCell id="2p3xcbJ1UCog9vkdOibI-19" value="" style="shape=stencil(lVjLbhsxDPwaXwmJpF7nNP2PAHEao2kcOO7r78utoc2K6x0jN8fRWBI5MyS1k7v354e3/Y7D+/l0/L7/fXg8P+/ky4758Pq8Px3O9mkn9zu5ezqe9t9Ox5+vj5e/3x6mldOnH8df0y/8ueC4UUwTisPfyzeVJPz/4utl/cvhdbk+URrXR6WsAMCUZQBwpAB2iI2KAxRKAgCJWAeAVMoJAITauIMmyhXvEAZASiQFACqlMgBypASiJIFKGwFCAQEqafEAadsAzT4PBshxG2BX1OABFSQup06EGaAUwJFKJkkeUHgbUDNFd4dEBUSpqadGrsQZABpJHgDFLo24FEJn8yygQIq2SP2OHdDsJwCZqgHGMLXSU3M9roVkvLVdCyXCguISYYAEBJFaD/sCUMCRElPgFQBESQ0QR5/5iPR1RTDJiGhmA+DW5kyhjplrEGDOFMcdqhADCZlv6LiDsSmAuDbiFb8ToEaiOEY15R62jfVtdBmdJbh1nlENguUTY7fFGRAhkSxCdSSSZQWZDJuljCGKuX9znRaRiktat9rr68WXn0IR3EByp8Ccs+45W8ZdndNDSmj0HMpQaSreXiosJFb6ZPz9Rg1QzhjDY4ojE6MLZK/LiF3eTqRjhGKhAFhqV3YhNaUGtEPsOp9ZZ54NANK80KyJiUBoxgpVD0DKlFVPYkeKiEeR6qjNqelARLUrus4tU0JSa1Sd1LSHYWsHZ6jmB6ivsjtEzz0FibYguVpbYKMnadVg9K7p+vri/TFj7YRVx0MKkmxEDd5bEuKpUnMlrYtvS2qh+AToDW065UjfckubdUUiQQDtHFvQFEnt0wCTmp8XcNbMEN0IY60DGjCmsjkeSXHHZlrP4w6Kux1eGVIqsNkx4jip5blubUnNhdVaEUZ10Ljn6gjDmcdMtblJMvfifr0Zib72GwCVHus6Zb0D0H8ufoQxQAKAYrMse0AAibMG0B/JBIQAumovrL9AQ9KqQ7KxCXX/0xgWPQA1bdMsyx6QkKbtAOIBaJScfDV/BjDVgbq6NEicFcvq6I0nw8i+UzU9wLB2tSwmyYqmiy74hUAZ3GA1RtrIVIB1h/5rs8XMHcTGeVy7YAIXsL54z2OBnhdD1+6iMih6ttFu64vihmaL6l+qmBoaLZqP6NwxbVHIPS6Ebmhbnq3ZrRdQp6bjslsPLX4VnxvrzSiqPw8qg8UPLgHGc3oYFB9PJADrmd0sCJtynl8QZkbjl8jm72vGh/LbfI0tt87zuZfRm+vtw8cz7NPh5eXyirv8v3+2ta8uT75y/w8=);lineShape=1;strokeColor=default;" vertex="1" parent="1">
          <mxGeometry x="340.64961543961863" y="153.81608825142803" width="35.30871289479637" height="38.728090248053036" as="geometry" />
        </mxCell>
        <mxCell id="2p3xcbJ1UCog9vkdOibI-20" value="" style="shape=stencil(fZbdcgIhDIWfZm8zQAg/17Z9j85U606tdqz9e/tmZ0c0uJ47xP0I5JwEBl59bp8/1kNwn6fj4W39M76ctgM/DCGM++36OJ50NPDjwKvN4bh+PR6+9i/z74/n6ctp9H74nlb4nbmSKZeJCu5vngmZ6jzzNAO7cX8FVKEsBuBKrgKg9oAE8gkCbLeUhEoEQKSUDZDLeWYRKIl8MEDRmHwfyBrBG6Amyu4+kDxxMoB3jhwgYu7TVAsVkFcWCs4CTBEoF4RctKeOxHIf8IXYpikHikAIf+MNUW94AGSSaoAoFIE3AlOyeWU+p2E5S9yfQZcQILVuQOwZdJNoS9Ls3wA5u2XZTIHECqeJ9kDpSaauRiNVcAY1QhdBzeLBli5WazpkSsBLV25uRaqWRyFawTQzRRIQYirJzq5atkBqLfouwqUxLBepthWb10vrWZY6UOAeyKCCtDV625mm9gmUC4Wc3VLJMMIE1BsA2FW9JraVlQB7n3c9oMKhCLEvIM1zBPZ25/umNQ1tVEC2G+fFCC8g398O2hNQuQlVu752DBfA+q0ptnqO5JFmeuIuo9DY7KjY71UxdJV4EntifPWorW++R/dC4t7V3DlIB5cHx2bc7eb3yvX//QNFp+bHDT/+Aw==);lineShape=1;strokeColor=default;" vertex="1" parent="1">
          <mxGeometry x="380.86796084247567" y="183.87531245851915" width="4.672539772115442" height="4.665236216357698" as="geometry" />
        </mxCell>
        <mxCell id="2p3xcbJ1UCog9vkdOibI-21" value="" style="shape=stencil(lVbbcttACP0avTIL7PU5Tf8jM3FqTV074zi9/H1RXdleZJ1M3qQVR3DgADvow9v26XUzSHg7HQ/fN7/G59N20C+DyLjfbo7jyZ4GfRz04eVw3Hw7Ht73z+f316fJcnr6cfg5/eH3GSeRcp1QEv78P6Ga/h18Pdvvxv2NvTaqubPnRMrrgKTUnING2tYBOZP2HmKkqOuAEolbB0iNuK4DKlPjDlCEMgipBQqpA9QLq/uARtJzaEoC0srBXIQeEedMr7mI0gMyxQIAhVKfJjtpIK8WQHaARgF5YAriAQXktWavjZs83EeIR5iLDCpRLE2xB1SqgETJVNSnKYPSlUScfCEYAaywLqRISaCH6jxYGiIA1LlOFwBTAqStI7xeAyWgvmqkgwcEMAbqpSUvLdSoITHpgkOgiBrC5saCdARpNSH4SgsVUDiTWlv0KJp9k/xdWhMsnIWkC/HBpk4LD8YKeRBSx8EaCBXOQooe0FBTR5JFi6KVUk1qCw8MPJQyt8sNaQZTwxrIe8iU0RD4LCAX4h5gsw2JLy20VCIcZElIenlnG7egH2xruqkRTUug0speS6rEgAMXkp4Dt3m03Qf4DrVCgoACaV/mPHfHirnboIkCSGjwi0E/iD33dwaBglCKffIZLpHkV0KAwdT5Z1dzAVTZKsvOHm1ZXkgnzJt9TQi1OXsFbO1z9nQbspf58zWbFQjns5faj+3t4XqDfhl3u/MF/Pa7v3Hb0fm2ro9/AQ==);lineShape=1;strokeColor=default;" vertex="1" parent="1">
          <mxGeometry x="388.30882038132177" y="154.31712885161687" width="12.98249552690504" height="32.474771229653584" as="geometry" />
        </mxCell>
        <mxCell id="2p3xcbJ1UCog9vkdOibI-22" value="" style="shape=stencil(lVjZbttADPwavRK7y734nKb/ESBObdSNA8e9/r5UjbVNSp4gb7LM0fIcjjTxw/v26W0zpfB+Oh6+b37vnk/bib9MKe1et5vj7qRXEz9O/PByOG6+HQ8/X5/Pv9+eZsv56sfh1/yEP2ccRwppRqXw93xHqMj/G1/P9vvd6429/t2KsY+dWgaATsUewJVKgwDuBpAVwBhQDaBUigggJNalWimX+4CciIMBNIZBl0TJZqkJMQi6RmriAQLq0CLFbAGdagUAoRAtoFAFJ/Q4HLhkiUfe1k/QJHZfB5RWzbqwBWTqIIb5ea7STAHEkJmSjUErk1G3NsrsAQG4FCjamDlRB70XiW3rXQdq1V4DsBGrhwnYF+q2U/VO6aDKVK3/KY+irPsfBz3cHMDAoZgp2YymSj0CQF1JUQQliI1q9jWIoMjKWMEmlQvsCj2h2BhYSQ9lSQnIDluOVFGWdLRsDNq6EmAdHMPkQgnEoCTJ3r4gCvPDnDM1UIXk2UJJU0DjLfgrB8ogYB0029isgwAYNVBw9gwbO1B3TRRgiZNvCc1wAP7nUc6bMQjg+Y3aYpCRfQx+CmYA4EZtubzwKAF+j2XhUh/0em9s3Nqc1QYC9BHiBZBH2947ods5065AW/DTgHkhiI+hoDrzGPQbAIO0Flmw0UUMrK9N8WtTW7uCUVNl0Bd8xwAgcTFsAl2S6uWLajYBJC/is6S7vaLmC4uBrloaQADSSJoBzAoJcLAkD+gdbiqVVN0WQs9sSOXJUFwX8XwN657icftcM4cSq6zOC5/QkGrvNAcIY2zXJ4L9G0NPeLdlqq4QOhFIAbBvv1JI0FTzYhlWLBl4MdVYDCv3OVGidzqSDFo4G3SFOm/mSrdvoRRWqnTCUJMGWi+K3+cRr/MwMj7sP1iH2gPR2cN3sOz7FA/CvC2zs2cs5Cu7eJEmVI3p6CVBWavqIDSX/47GLHiGLJCzdQdE23AN8uNn3+M/tteL60eDl91+f/7mcPu//8igt84fKPjxHw==);lineShape=1;strokeColor=default;" vertex="1" parent="1">
          <mxGeometry x="408.694808328082" y="146.81106386081763" width="30.5045461200134" height="26.794478051854867" as="geometry" />
        </mxCell>
        <mxCell id="2p3xcbJ1UCog9vkdOibI-23" value="" style="shape=stencil(lVfLchpBDPyavapGo3meHec/XGUcqBBwYZLYfx9tyK5XAppwWw9qjx7dkmaQh7f10+tqiOHteNh/X/3ePB/Xg3wZYtzs1qvD5qhfgzwO8vCyP6y+HfY/d8+nv1+fRsvx68f+1/gf3k+4nEnyiIrh498JtfD34OvJfrvZLe2FSjH23KhUAIjUmgFIoNogoHQDSJE4Q0APNoRItcMYmgUUplQAIFGrFtCmqC4CSqWUDKB2auCGVqhHA+iBEl8HSKEiFiAwS6JlskF3piDXAUkrbQvXOnECWWISG3SrVAGXihLBplXT0EAMVT0OHlBApVugnr1LMQJAp+xcaiTghp6pW4AWLgBq9E7JAZTewCUFVLaARBG5VLxE9UQA+dTjYrPUGzEgX4uTAzOgk4AmUCMlyyUOYarlZW7oFeKv6ICuY9tgD2BQiJSoWLr2Sg1Jrk8CmwFafHCDatRXTmDbkErZpkk1WgE3Ek+9d6HRikTdKDtBNMi+rJ3MlloVFACZylkMbebjZW7UyeMFoN/olexdQtRQvbD4LCVAV6W/F4QOCJClBZsXpc7giisIEDZ375RGIUBC4ltZLbDUwWt0HHKgzzBlq58bU1R7gNs08JiOvo3d2AOib6w3Fg32e8aNTeasYHhTCn7JSHigEzvvKYDkzBKZnYcSYPaDUCcjqm2d1pVPewGzX4Nzsx+3d9FJzvfYn7Uh7I8uLyncEW+ap/z/5VOpy26rheXSDdKJBbPh4lp+r73Jp358vgFeNtvt6Qmx/N2/GfTo9N6Qxz8=);lineShape=1;strokeColor=default;" vertex="1" parent="1">
          <mxGeometry x="443.97450920082724" y="146.98926604312487" width="7.319285692408812" height="34.639630520624905" as="geometry" />
        </mxCell>
      </root>
    </mxGraphModel>
  </diagram>
</mxfile>
